<?xml version="1.0" standalone="no"?><!DOCTYPE svg PUBLIC "-//W3C//DTD SVG 1.1//EN" "http://www.w3.org/Graphics/SVG/1.1/DTD/svg11.dtd"><svg t="1669882576021" class="icon" viewBox="0 0 1024 1024" version="1.1" xmlns="http://www.w3.org/2000/svg" p-id="9621" xmlns:xlink="http://www.w3.org/1999/xlink" width="200" height="200"><path d="M512 117.333333c-6.250667 0-12.544 0.149333-18.837333 0.426667a32 32 0 0 0-28.885334 42.197333c10.389333 30.72 15.722667 63.018667 15.722667 96.042667 0 168.405333-139.370667 305.706667-313.130667 309.269333l-7.957333 0.085334a32 32 0 0 0-30.592 39.488C170.730667 780.672 328.682667 906.666667 512 906.666667c217.962667 0 394.666667-176.704 394.666667-394.666667S729.962667 117.333333 512 117.333333z m26.282667 74.090667l-1.813334-9.194667 2.325334 0.170667C708.885333 196.053333 842.666667 338.389333 842.666667 512c0 182.613333-148.053333 330.666667-330.666667 330.666667l-7.296-0.085334a330.944 330.944 0 0 1-301.44-211.861333l-1.344-3.562667 0.768-0.064C394.282667 606.656 544 448.490667 544 256c0-21.824-1.92-43.413333-5.717333-64.576z" p-id="9622"></path></svg>