<?xml version="1.0" encoding="utf-8"?>
<!-- Generator: Adobe Illustrator 25.0.0, SVG Export Plug-In . SVG Version: 6.00 Build 0)  -->
<svg version="1.1" id="图层_1" xmlns="http://www.w3.org/2000/svg" xmlns:xlink="http://www.w3.org/1999/xlink" x="0px" y="0px"
	 viewBox="0 0 841.89 595.28" style="enable-background:new 0 0 841.89 595.28;" xml:space="preserve">
<style type="text/css">
	.st0{opacity:0.54;}
	.st1{fill:#5B0000;stroke:#666666;stroke-width:0.5;stroke-miterlimit:10;}
	.st2{fill:#563C3A;stroke:#666666;stroke-width:0.5;stroke-miterlimit:10;}
	.st3{fill:#F49292;stroke:#FFFFFF;stroke-width:0.5;stroke-miterlimit:10;}
	.st4{fill:#EFD5D3;stroke:#FFFFFF;stroke-width:0.5;stroke-miterlimit:10;}
	.st5{fill:#5B5B00;stroke:#666666;stroke-width:0.5;stroke-miterlimit:10;}
	.st6{fill:#666600;stroke:#666666;stroke-width:0.5;stroke-miterlimit:10;}
	.st7{fill:#666666;stroke:#666666;stroke-width:0.5;stroke-miterlimit:10;}
	.st8{fill:#F4F40B;stroke:#FFFFFF;stroke-width:0.5;stroke-miterlimit:10;}
	.st9{fill:#FFFF08;stroke:#FFFFFF;stroke-width:0.5;stroke-miterlimit:10;}
	.st10{fill:#FFFFFF;stroke:#FFFFFF;stroke-width:0.5;stroke-miterlimit:10;}
	.st11{fill:#003460;stroke:#666666;stroke-width:0.5;stroke-miterlimit:10;}
	.st12{fill:#000023;stroke:#666666;stroke-width:0.5;stroke-miterlimit:10;}
	.st13{fill:#75CDF9;stroke:#FFFFFF;stroke-width:0.5;stroke-miterlimit:10;}
	.st14{fill:#1964BC;stroke:#FFFFFF;stroke-width:0.5;stroke-miterlimit:10;}
</style>
<g>
	<g class="st0">
		<polygon class="st1" points="513.67,305.01 513.65,305 445.61,373.04 445.58,373.07 445.59,373.08 497.75,425.24 565.82,357.17 		
			"/>
		<polygon class="st1" points="445.6,236.94 513.65,305 513.67,304.98 445.6,236.91 377.53,304.97 325.38,357.13 393.45,425.2 
			445.58,373.07 377.53,305.02 		"/>
		<polygon class="st2" points="513.65,305 445.6,236.94 377.53,305.02 445.58,373.07 445.61,373.04 		"/>
	</g>
	<g>
		<g>
			<polygon class="st3" points="508,299.34 507.98,299.33 439.94,367.37 439.91,367.4 439.92,367.41 492.08,419.57 560.15,351.5 			
				"/>
			<polygon class="st3" points="439.93,231.28 507.98,299.33 508,299.31 439.93,231.24 371.86,299.3 319.71,351.46 387.78,419.53 
				439.91,367.4 371.86,299.35 			"/>
			<polygon class="st4" points="507.98,299.33 439.93,231.28 371.86,299.35 439.91,367.4 439.94,367.37 			"/>
		</g>
	</g>
</g>
<g>
	<g class="st0">
		<path class="st5" d="M572.39,331.05v94.19h94.15v-0.03C614.55,425.21,572.39,383.05,572.39,331.05z"/>
		<path class="st5" d="M664.1,236.93h-91.71v94.12C572.39,279.87,613.23,238.23,664.1,236.93z"/>
		<path class="st6" d="M666.55,236.9c-0.82,0-1.64,0.01-2.45,0.03h2.45v188.28c52,0,94.15-42.15,94.15-94.15
			S718.55,236.9,666.55,236.9z"/>
		<path class="st7" d="M664.1,236.93c-50.87,1.3-91.71,42.94-91.71,94.12c0,52,42.15,94.15,94.15,94.15V236.93H664.1z"/>
	</g>
	<g>
		<g>
			<path class="st8" d="M566.72,325.38v94.19h94.15v-0.03C608.88,419.54,566.72,377.38,566.72,325.38z"/>
			<path class="st8" d="M658.43,231.26h-91.71v94.12C566.72,274.2,607.56,232.56,658.43,231.26z"/>
			<path class="st9" d="M660.88,231.23c-0.82,0-1.64,0.01-2.45,0.03h2.45v188.28c52,0,94.15-42.15,94.15-94.15
				S712.88,231.23,660.88,231.23z"/>
			<path class="st10" d="M658.43,231.26c-50.87,1.3-91.71,42.94-91.71,94.12c0,52,42.15,94.15,94.15,94.15V231.26H658.43z"/>
		</g>
	</g>
</g>
<g>
	<g class="st0">
		<path class="st11" d="M320.45,365.86c0-32.78-26.57-59.35-59.35-59.35c-3.41,0-6.75,0.3-10.01,0.86
			c-4.57,24.26-23.9,43.29-48.3,47.44c-0.68,3.58-1.04,7.28-1.04,11.06c0,1.17,0.04,2.33,0.11,3.48h64.22v55.65
			C296.52,422.45,320.45,396.96,320.45,365.86z"/>
		<path class="st11" d="M251.09,307.36c0.68-3.58,1.04-7.28,1.04-11.06c0-1.17-0.04-2.32-0.11-3.47h-60.91V237
			c-32.01,0.88-57.68,27.09-57.68,59.31c0,32.78,26.57,59.35,59.35,59.35c3.41,0,6.75-0.3,10.01-0.86
			C207.36,330.54,226.69,311.51,251.09,307.36z"/>
		<path class="st7" d="M251.09,307.36c-24.4,4.15-43.73,23.18-48.3,47.44C227.19,350.65,246.52,331.62,251.09,307.36z"/>
		<path class="st12" d="M191.12,236.95V237c0.56-0.02,1.11-0.04,1.67-0.04H191.12z"/>
		<path class="st11" d="M252.03,292.83h58.64v-55.88H192.78C224.4,236.95,250.23,261.67,252.03,292.83z"/>
		<path class="st7" d="M252.03,292.83c-1.8-31.16-27.63-55.88-59.24-55.88c-0.56,0-1.11,0.03-1.67,0.04v55.84H252.03z"/>
		<path class="st11" d="M201.85,369.34h-55.19v55.88h119.41v-0.23c-1.64,0.14-3.3,0.22-4.98,0.22
			C229.49,425.21,203.66,400.49,201.85,369.34z"/>
		<path class="st7" d="M201.85,369.34c1.8,31.16,27.63,55.87,59.24,55.87c1.68,0,3.34-0.09,4.98-0.22v-55.65H201.85z"/>
	</g>
	<g>
		<g>
			<path class="st13" d="M314.78,360.19c0-32.78-26.57-59.35-59.35-59.35c-3.41,0-6.75,0.3-10.01,0.86
				c-4.57,24.26-23.9,43.29-48.3,47.44c-0.68,3.58-1.04,7.28-1.04,11.06c0,1.17,0.04,2.33,0.11,3.48h64.22v55.65
				C290.85,416.78,314.78,391.29,314.78,360.19z"/>
			<path class="st13" d="M245.42,301.69c0.68-3.58,1.04-7.28,1.04-11.06c0-1.17-0.04-2.32-0.11-3.47h-60.91v-55.84
				c-32.01,0.88-57.68,27.09-57.68,59.31c0,32.78,26.57,59.35,59.35,59.35c3.41,0,6.75-0.3,10.01-0.86
				C201.69,324.87,221.02,305.84,245.42,301.69z"/>
			<path class="st10" d="M245.42,301.69c-24.4,4.15-43.73,23.18-48.3,47.44C221.53,344.98,240.85,325.95,245.42,301.69z"/>
			<path class="st14" d="M185.45,231.28v0.04c0.56-0.02,1.11-0.04,1.67-0.04H185.45z"/>
			<path class="st13" d="M246.36,287.16H305v-55.88H187.11C218.73,231.28,244.56,256,246.36,287.16z"/>
			<path class="st10" d="M246.36,287.16c-1.8-31.16-27.63-55.88-59.24-55.88c-0.56,0-1.11,0.03-1.67,0.04v55.84H246.36z"/>
			<path class="st13" d="M196.19,363.67H141v55.88h119.41v-0.23c-1.64,0.14-3.3,0.22-4.98,0.22
				C223.82,419.54,197.99,394.83,196.19,363.67z"/>
			<path class="st10" d="M196.19,363.67c1.8,31.16,27.63,55.87,59.24,55.87c1.68,0,3.34-0.09,4.98-0.22v-55.65H196.19z"/>
		</g>
	</g>
</g>
</svg>
