<?xml version="1.0" encoding="utf-8"?>
<!-- Generator: Adobe Illustrator 25.0.0, SVG Export Plug-In . SVG Version: 6.00 Build 0)  -->
<svg version="1.1" id="图层_1" xmlns="http://www.w3.org/2000/svg" xmlns:xlink="http://www.w3.org/1999/xlink" x="0px" y="0px"
	 viewBox="0 0 841.89 595.28" style="enable-background:new 0 0 841.89 595.28;" xml:space="preserve">
<style type="text/css">
	.st0{fill:#EDB3AC;}
	.st1{fill:#F0C2BD;}
	.st2{fill:#EDBFA4;}
	.st3{fill:#F2D3C0;}
	.st4{fill:#B0D6E9;}
	.st5{fill:#D0ECF7;}
</style>
<g>
	<polygon class="st0" points="508,299.34 507.98,299.33 439.94,367.37 439.91,367.4 439.92,367.41 492.08,419.57 560.15,351.5 	"/>
	<polygon class="st0" points="439.93,231.28 507.98,299.33 508,299.31 439.93,231.24 371.86,299.3 319.71,351.46 387.78,419.53 
		439.91,367.4 371.86,299.35 	"/>
	<polygon class="st1" points="507.98,299.33 439.93,231.28 371.86,299.35 439.91,367.4 439.94,367.37 	"/>
</g>
<g>
	<path class="st2" d="M566.72,325.38v94.19h94.15v-0.03C608.88,419.54,566.72,377.38,566.72,325.38z"/>
	<path class="st2" d="M658.43,231.26h-91.71v94.12C566.72,274.2,607.56,232.56,658.43,231.26z"/>
	<path class="st2" d="M660.88,231.23c-0.82,0-1.64,0.01-2.45,0.03h2.45v188.28c52,0,94.15-42.15,94.15-94.15
		S712.88,231.23,660.88,231.23z"/>
	<path class="st3" d="M658.43,231.26c-50.87,1.3-91.71,42.94-91.71,94.12c0,52,42.15,94.15,94.15,94.15V231.26H658.43z"/>
</g>
<g>
	<path class="st4" d="M314.78,360.19c0-32.78-26.57-59.35-59.35-59.35c-3.41,0-6.75,0.3-10.01,0.86
		c-4.57,24.26-23.9,43.29-48.3,47.44c-0.68,3.58-1.04,7.28-1.04,11.06c0,1.17,0.04,2.33,0.11,3.48h64.22v55.65
		C290.85,416.78,314.78,391.29,314.78,360.19z"/>
	<path class="st4" d="M245.42,301.69c0.68-3.58,1.04-7.28,1.04-11.06c0-1.17-0.04-2.32-0.11-3.47h-60.91v-55.84
		c-32.01,0.88-57.68,27.09-57.68,59.31c0,32.78,26.57,59.35,59.35,59.35c3.41,0,6.75-0.3,10.01-0.86
		C201.69,324.87,221.02,305.84,245.42,301.69z"/>
	<path class="st5" d="M245.42,301.69c-24.4,4.15-43.73,23.18-48.3,47.44C221.53,344.98,240.85,325.95,245.42,301.69z"/>
	<path class="st4" d="M185.45,231.28v0.04c0.56-0.02,1.11-0.04,1.67-0.04H185.45z"/>
	<path class="st4" d="M246.36,287.16H305v-55.88H187.11C218.73,231.28,244.56,256,246.36,287.16z"/>
	<path class="st5" d="M246.36,287.16c-1.8-31.16-27.63-55.88-59.24-55.88c-0.56,0-1.11,0.03-1.67,0.04v55.84H246.36z"/>
	<path class="st4" d="M196.19,363.67H141v55.88h119.41v-0.23c-1.64,0.14-3.3,0.22-4.98,0.22
		C223.82,419.54,197.99,394.83,196.19,363.67z"/>
	<path class="st5" d="M196.19,363.67c1.8,31.16,27.63,55.87,59.24,55.87c1.68,0,3.34-0.09,4.98-0.22v-55.65H196.19z"/>
</g>
</svg>
