<?xml version="1.0" standalone="no"?><!DOCTYPE svg PUBLIC "-//W3C//DTD SVG 1.1//EN" "http://www.w3.org/Graphics/SVG/1.1/DTD/svg11.dtd"><svg t="1668136487932" class="icon" viewBox="0 0 1024 1024" version="1.1" xmlns="http://www.w3.org/2000/svg" p-id="50463" xmlns:xlink="http://www.w3.org/1999/xlink" width="200" height="200"><path d="M456.906218 294.964942c-42.228777 10.670014-79.681784 33.305547-108.548228 64.070224 26.117844 8.246825 53.705156 14.551414 82.46313 18.790972C437.532985 348.515578 446.249507 320.691883 456.906218 294.964942z" p-id="50464" fill="#1296db"></path><path d="M424.566672 409.362388c-34.660404-4.920056-67.606771-12.549827-98.240465-22.73684-21.435195 31.585369-34.989909 68.920696-37.855166 109.256356l128.071887 0C417.34213 466.135416 419.84002 437.089893 424.566672 409.362388z" p-id="50465" fill="#1296db"></path><path d="M416.542928 527.876596 288.471041 527.876596c2.864234 40.33566 16.419971 77.670987 37.855166 109.257379 30.633694-10.187013 63.580061-17.819854 98.240465-22.73991C419.84002 586.66656 417.34213 557.621037 416.542928 527.876596z" p-id="50466" fill="#1296db"></path><path d="M560.185442 382.066719c-8.17417-33.479509-19.188015-65.027016-32.810267-93.384877-5.15337-0.354064-10.288321-0.783853-15.532765-0.783853-5.242398 0-10.377348 0.429789-15.530718 0.783853-13.622252 28.358885-24.636097 59.906391-32.810267 93.384877 15.910365 1.384533 32.027437 2.218528 48.342008 2.218528C528.156982 384.285247 544.275077 383.450229 560.185442 382.066719z" p-id="50467" fill="#1296db"></path><path d="M566.856375 413.380912c-17.998933 1.577938-36.323277 2.505054-55.013965 2.505054-18.690688 0-37.014009-0.926092-55.012941-2.505054-4.824889 26.615171-7.380084 54.332443-8.233522 82.500992l126.494972 0C574.23646 467.713354 571.681264 439.996083 566.856375 413.380912z" p-id="50468" fill="#1296db"></path><path d="M675.326832 359.035166c-28.866445-30.764678-66.320475-53.400211-108.549252-64.070224 10.657734 25.725918 19.373233 53.549613 26.085098 82.861196C621.621677 373.587604 649.207965 367.283014 675.326832 359.035166z" p-id="50469" fill="#1296db"></path><path d="M456.828446 610.375541c17.998933-1.577938 36.323277-2.506077 55.012941-2.506077 18.690688 0 37.015032 0.928139 55.014988 2.506077 4.824889-26.615171 7.379061-54.331419 8.233522-82.497922L448.595948 527.877619C449.449385 556.044122 452.003558 583.76037 456.828446 610.375541z" p-id="50470" fill="#1296db"></path><path d="M607.14087 495.881904l128.072911 0c-2.864234-40.33566-16.418948-77.673034-37.855166-109.258403-30.633694 10.188037-63.580061 17.817808-98.241488 22.737864C603.844801 437.089893 606.341668 466.136439 607.14087 495.881904z" p-id="50471" fill="#1296db"></path><path d="M511.706311 0.060375c-282.59624 0-511.684822 229.089605-511.684822 511.684822s229.089605 511.684822 511.684822 511.684822 511.684822-229.089605 511.684822-511.684822S794.301528 0.060375 511.706311 0.060375zM511.842411 767.856225c-141.371798 0-255.977999-114.606201-255.977999-255.976976 0-141.374868 114.606201-255.976976 255.977999-255.976976 141.372821 0 255.977999 114.602108 255.977999 255.976976C767.82041 653.250024 653.215232 767.856225 511.842411 767.856225z" p-id="50472" fill="#1296db"></path><path d="M599.117127 614.394065c34.661428 4.920056 67.607794 12.551874 98.241488 22.73991 21.435195-31.585369 34.990932-68.920696 37.855166-109.257379L607.14087 527.876596C606.341668 557.621037 603.844801 586.66656 599.117127 614.394065z" p-id="50473" fill="#1296db"></path><path d="M566.777581 728.792535c42.228777-10.66899 79.682807-33.3035 108.549252-64.070224-26.117844-8.246825-53.706179-14.551414-82.464153-18.789948C586.150814 675.241898 577.434292 703.06764 566.777581 728.792535z" p-id="50474" fill="#1296db"></path><path d="M348.357989 664.72231c28.866445 30.765701 66.320475 53.401234 108.548228 64.070224-10.656711-25.724895-19.373233-53.549613-26.085098-82.860173C402.063145 650.169873 374.476857 656.474462 348.357989 664.72231z" p-id="50475" fill="#1296db"></path><path d="M463.500403 641.692804c8.17417 33.479509 19.188015 65.027016 32.810267 93.383854 5.15337 0.355087 10.288321 0.785899 15.530718 0.785899 5.244444 0 10.379395-0.429789 15.532765-0.785899 13.622252-28.356838 24.636097-59.905368 32.810267-93.383854-15.910365-1.384533-32.027437-2.219551-48.343031-2.219551C495.526817 639.47223 479.409744 640.308271 463.500403 641.692804z" p-id="50476" fill="#1296db"></path></svg>